<mxfile host="app.diagrams.net" modified="2024-07-23T08:40:35.015Z" agent="Mozilla/5.0 (Windows NT 10.0; Win64; x64) AppleWebKit/537.36 (KHTML, like Gecko) Chrome/126.0.0.0 Safari/537.36" version="24.7.3" etag="tS6dH1x-Jp5xwG3GYZ0C" type="github">
  <diagram name="Halaman-1" id="tiM0ZnuD2JS_XEaEvP2C">
    <mxGraphModel>
      <root>
        <mxCell id="0" />
        <mxCell id="1" parent="0" />
      </root>
    </mxGraphModel>
  </diagram>
</mxfile>
